<svg version="1.1" id="Layer_1" xmlns="http://www.w3.org/2000/svg" xmlns:xlink="http://www.w3.org/1999/xlink" x="0px" y="0px"
	 width="100%" viewBox="0 0 150 155" enable-background="new 0 0 150 155" xml:space="preserve">
<path fill="#FBFBFB" opacity="1.000000" stroke="none" 
	d="
M91.000000,156.000000 
	C60.666668,156.000000 30.833334,156.000000 1.000000,156.000000 
	C1.000000,104.333336 1.000000,52.666668 1.000000,1.000000 
	C51.000000,1.000000 101.000000,1.000000 151.000000,1.000000 
	C151.000000,52.666668 151.000000,104.333336 151.000000,156.000000 
	C131.166672,156.000000 111.333336,156.000000 91.000000,156.000000 
M95.745850,108.387566 
	C98.000717,105.503258 100.037582,102.408958 102.563980,99.786209 
	C105.950645,96.270370 106.719437,92.292625 106.686264,87.555183 
	C106.506721,61.913853 106.607635,36.270557 106.611847,10.627941 
	C106.612091,9.119757 106.611877,7.611572 106.611877,6.103388 
	C106.249352,6.052305 105.886818,6.001223 105.524292,5.950140 
	C104.593140,7.267679 103.661987,8.585217 102.271866,10.053588 
	C101.994934,10.283796 101.893730,10.575064 101.398659,11.297171 
	C90.237373,25.774260 79.059937,40.238934 67.920197,54.732578 
	C59.798420,65.299622 59.819256,65.317802 68.708305,75.473816 
	C68.914207,75.709061 69.242157,75.837471 69.657784,76.110817 
	C77.042915,66.705238 84.434975,57.290848 91.827034,47.876457 
	C92.214470,48.026558 92.601906,48.176655 92.989342,48.326756 
	C92.989342,69.218643 92.989342,90.110535 92.989342,111.002419 
	C93.259529,111.031128 93.529716,111.059837 93.799904,111.088547 
	C94.210503,110.239090 94.621109,109.389626 94.977341,108.459618 
	C94.977341,108.459618 95.034332,108.530060 95.745850,108.387566 
M19.338854,48.406776 
	C20.288107,49.054943 21.481697,49.513958 22.151154,50.378727 
	C43.132183,77.480919 64.055176,104.628029 85.007393,131.752563 
	C88.194847,135.878998 91.481628,139.928741 94.936546,144.283798 
	C107.297058,128.412247 119.258003,113.053757 131.218948,97.695259 
	C131.610321,97.837791 132.001678,97.980316 132.393051,98.122841 
	C132.393051,115.644669 132.393051,133.166504 132.393051,150.557632 
	C137.286911,150.557632 141.545303,150.557632 145.763947,150.557632 
	C145.763947,118.751633 145.763947,87.269295 145.763947,54.842480 
	C128.507401,77.113258 111.843498,98.619164 94.884224,120.506287 
	C65.010162,81.849487 35.487206,43.647015 5.426012,4.748068 
	C5.426012,37.451893 5.426012,69.096230 5.426012,100.972466 
	C9.615412,100.972466 13.436573,101.062111 17.245184,100.883766 
	C17.876081,100.854218 18.452143,99.653656 19.281609,98.081795 
	C19.202713,81.722733 19.123817,65.363670 19.338854,48.406776 
M57.607170,146.270721 
	C57.606033,135.790665 56.940441,125.256783 57.783749,114.845116 
	C58.694244,103.603935 49.721699,98.935913 44.542282,90.152603 
	C44.542282,111.473320 44.542282,131.175659 44.542282,151.097412 
	C47.860703,151.097412 50.865643,150.876694 53.823040,151.157181 
	C57.020218,151.460403 58.062237,150.177002 57.607170,146.270721 
z"/>
<path fill="#080808" opacity="1.000000" stroke="none" 
	d="
M19.053547,98.994255 
	C18.452143,99.653656 17.876081,100.854218 17.245184,100.883766 
	C13.436573,101.062111 9.615412,100.972466 5.426012,100.972466 
	C5.426012,69.096230 5.426012,37.451893 5.426012,4.748068 
	C35.487206,43.647015 65.010162,81.849487 94.884224,120.506287 
	C111.843498,98.619164 128.507401,77.113258 145.763947,54.842480 
	C145.763947,87.269295 145.763947,118.751633 145.763947,150.557632 
	C141.545303,150.557632 137.286911,150.557632 132.393051,150.557632 
	C132.393051,133.166504 132.393051,115.644669 132.393051,98.122841 
	C132.001678,97.980316 131.610321,97.837791 131.218948,97.695259 
	C119.258003,113.053757 107.297058,128.412247 94.936546,144.283798 
	C91.481628,139.928741 88.194847,135.878998 85.007393,131.752563 
	C64.055176,104.628029 43.132183,77.480919 22.151154,50.378727 
	C21.481697,49.513958 20.288107,49.054943 18.794371,48.799702 
	C17.836954,50.183487 17.069666,51.172440 17.064333,52.165485 
	C16.986456,66.662750 16.965427,81.160973 17.098272,95.657433 
	C17.108521,96.775589 18.372370,97.882248 19.053547,98.994255 
M7.005324,58.500000 
	C7.005324,71.552193 7.005324,84.604378 7.005324,97.656570 
	C7.240223,97.652222 7.475121,97.647881 7.710020,97.643532 
	C7.710020,69.814079 7.710020,41.984631 7.710020,14.155181 
	C7.475126,14.153833 7.240232,14.152486 7.005339,14.151139 
	C7.005339,28.600760 7.005339,43.050381 7.005324,58.500000 
M134.990616,133.493927 
	C134.990616,121.774376 134.990616,110.054825 134.990616,98.335266 
	C134.757431,98.340523 134.524246,98.345779 134.291061,98.351036 
	C134.291061,114.853806 134.291061,131.356583 134.291061,147.859344 
	C134.524246,147.862259 134.757416,147.865173 134.990601,147.868088 
	C134.990601,143.408798 134.990601,138.949524 134.990616,133.493927 
z"/>
<path fill="#0A0A0A" opacity="1.000000" stroke="none" 
	d="
M95.031715,108.540169 
	C94.621109,109.389626 94.210503,110.239090 93.799904,111.088547 
	C93.529716,111.059837 93.259529,111.031128 92.989342,111.002419 
	C92.989342,90.110535 92.989342,69.218643 92.989342,48.326756 
	C92.601906,48.176655 92.214470,48.026558 91.827034,47.876457 
	C84.434975,57.290848 77.042915,66.705238 69.657784,76.110817 
	C69.242157,75.837471 68.914207,75.709061 68.708305,75.473816 
	C59.819256,65.317802 59.798420,65.299622 67.920197,54.732578 
	C79.059937,40.238934 90.237373,25.774260 101.874855,11.370234 
	C103.029327,11.428298 103.707603,11.413301 104.385880,11.398302 
	C103.834198,10.899786 103.282509,10.401270 102.730835,9.902755 
	C103.661987,8.585217 104.593140,7.267679 105.524292,5.950140 
	C105.886818,6.001223 106.249352,6.052305 106.611877,6.103388 
	C106.611877,7.611572 106.612091,9.119757 106.611847,10.627941 
	C106.607635,36.270557 106.506721,61.913853 106.686264,87.555183 
	C106.719437,92.292625 105.950645,96.270370 102.563980,99.786209 
	C100.037582,102.408958 98.000717,105.503258 95.387360,107.950882 
	C95.028870,88.125183 95.028870,68.736168 95.028870,49.347149 
	C94.025986,67.994919 94.009117,86.635773 94.068962,105.276382 
	C94.072456,106.365334 94.696472,107.452286 95.031715,108.540169 
z"/>
<path fill="#131313" opacity="1.000000" stroke="none" 
	d="
M57.607845,146.742630 
	C58.062237,150.177002 57.020218,151.460403 53.823040,151.157181 
	C50.865643,150.876694 47.860703,151.097412 44.542282,151.097412 
	C44.542282,131.175659 44.542282,111.473320 44.542282,90.152603 
	C49.721699,98.935913 58.694244,103.603935 57.783749,114.845116 
	C56.940441,125.256783 57.606033,135.790665 57.607845,146.742630 
M55.183929,144.039337 
	C55.277126,144.436447 55.370323,144.833557 55.463520,145.230667 
	C55.582371,145.144394 55.811420,145.042892 55.801941,144.974365 
	C55.746155,144.571213 55.634781,144.175766 55.183929,144.039337 
z"/>
<path fill="#191919" opacity="1.000000" stroke="none" 
	d="
M19.167578,98.538025 
	C18.372370,97.882248 17.108521,96.775589 17.098272,95.657433 
	C16.965427,81.160973 16.986456,66.662750 17.064333,52.165485 
	C17.069666,51.172440 17.836954,50.183487 18.647404,49.098618 
	C19.123817,65.363670 19.202713,81.722733 19.167578,98.538025 
z"/>
<path fill="#0D0D0D" opacity="1.000000" stroke="none" 
	d="
M102.501343,9.978170 
	C103.282509,10.401270 103.834198,10.899786 104.385880,11.398302 
	C103.707603,11.413301 103.029327,11.428298 102.159653,11.185342 
	C101.893730,10.575064 101.994934,10.283796 102.501343,9.978170 
z"/>
<path fill="#0F0F0F" opacity="1.000000" stroke="none" 
	d="
M7.005332,58.000000 
	C7.005339,43.050381 7.005339,28.600760 7.005339,14.151139 
	C7.240232,14.152486 7.475126,14.153833 7.710020,14.155181 
	C7.710020,41.984631 7.710020,69.814079 7.710020,97.643532 
	C7.475121,97.647881 7.240223,97.652222 7.005324,97.656570 
	C7.005324,84.604378 7.005324,71.552193 7.005332,58.000000 
z"/>
<path fill="#171717" opacity="1.000000" stroke="none" 
	d="
M134.990601,133.992081 
	C134.990601,138.949524 134.990601,143.408798 134.990601,147.868088 
	C134.757416,147.865173 134.524246,147.862259 134.291061,147.859344 
	C134.291061,131.356583 134.291061,114.853806 134.291061,98.351036 
	C134.524246,98.345779 134.757431,98.340523 134.990616,98.335266 
	C134.990616,110.054825 134.990616,121.774376 134.990601,133.992081 
z"/>
<path fill="#232323" opacity="1.000000" stroke="none" 
	d="
M95.004532,108.499893 
	C94.696472,107.452286 94.072456,106.365334 94.068962,105.276382 
	C94.009117,86.635773 94.025986,67.994919 95.028870,49.347149 
	C95.028870,68.736168 95.028870,88.125183 95.031601,108.022125 
	C95.034332,108.530060 94.977341,108.459618 95.004532,108.499893 
z"/>
<path fill="#131313" opacity="1.000000" stroke="none" 
	d="
M55.363033,143.908524 
	C55.634781,144.175766 55.746155,144.571213 55.801941,144.974365 
	C55.811420,145.042892 55.582371,145.144394 55.463520,145.230667 
	C55.370323,144.833557 55.277126,144.436447 55.363033,143.908524 
z"/>
</svg>